<mxfile host="app.diagrams.net" agent="Mozilla/5.0 (Macintosh; Intel Mac OS X 10_15_7) AppleWebKit/605.1.15 (KHTML, like Gecko) Version/18.4 Safari/605.1.15" version="27.1.5">
  <diagram name="Page-1" id="RH9fd915dS0JCxUIfWFl">
    <mxGraphModel dx="1215" dy="672" grid="1" gridSize="10" guides="1" tooltips="1" connect="1" arrows="1" fold="1" page="1" pageScale="1" pageWidth="827" pageHeight="1169" math="0" shadow="0">
      <root>
        <mxCell id="0" />
        <mxCell id="1" parent="0" />
        <mxCell id="T3vx0A5gtFhFNiu5xVaa-1" value="&lt;p style=&quot;margin:0px;margin-top:4px;text-align:center;&quot;&gt;&lt;b&gt;Piece&lt;/b&gt;&lt;/p&gt;&lt;hr size=&quot;1&quot; style=&quot;border-style:solid;&quot;&gt;&lt;p style=&quot;margin:0px;margin-left:4px;&quot;&gt;+PieceType piece &amp;lt;Enum&amp;gt;&lt;/p&gt;&lt;hr size=&quot;1&quot; style=&quot;border-style:solid;&quot;&gt;&lt;p style=&quot;margin:0px;margin-left:4px;&quot;&gt;Constructor:&lt;/p&gt;&lt;p style=&quot;margin:0px;margin-left:4px;&quot;&gt;Piece(PieceType piece){&lt;/p&gt;&lt;p style=&quot;margin:0px;margin-left:4px;&quot;&gt;&amp;nbsp;this.piece = piece&lt;/p&gt;&lt;p style=&quot;margin:0px;margin-left:4px;&quot;&gt;}&lt;/p&gt;" style="verticalAlign=top;align=left;overflow=fill;html=1;whiteSpace=wrap;" vertex="1" parent="1">
          <mxGeometry x="590" y="470" width="190" height="130" as="geometry" />
        </mxCell>
        <mxCell id="T3vx0A5gtFhFNiu5xVaa-3" style="edgeStyle=orthogonalEdgeStyle;rounded=0;orthogonalLoop=1;jettySize=auto;html=1;entryX=0;entryY=0.5;entryDx=0;entryDy=0;" edge="1" parent="1" source="T3vx0A5gtFhFNiu5xVaa-2" target="T3vx0A5gtFhFNiu5xVaa-1">
          <mxGeometry relative="1" as="geometry" />
        </mxCell>
        <mxCell id="T3vx0A5gtFhFNiu5xVaa-2" value="&lt;p style=&quot;margin:0px;margin-top:4px;text-align:center;&quot;&gt;&lt;b&gt;Board&lt;/b&gt;&lt;/p&gt;&lt;hr size=&quot;1&quot; style=&quot;border-style:solid;&quot;&gt;&lt;p style=&quot;margin:0px;margin-left:4px;&quot;&gt;+ int size ;&lt;/p&gt;&lt;p style=&quot;margin:0px;margin-left:4px;&quot;&gt;+ Piece[][] board&lt;/p&gt;&lt;hr size=&quot;1&quot; style=&quot;border-style:solid;&quot;&gt;&lt;p style=&quot;margin:0px;margin-left:4px;&quot;&gt;// getters and setters&lt;/p&gt;" style="verticalAlign=top;align=left;overflow=fill;html=1;whiteSpace=wrap;" vertex="1" parent="1">
          <mxGeometry x="400" y="495" width="130" height="90" as="geometry" />
        </mxCell>
        <mxCell id="T3vx0A5gtFhFNiu5xVaa-4" value="has-a" style="text;html=1;align=center;verticalAlign=middle;resizable=0;points=[];autosize=1;strokeColor=none;fillColor=none;" vertex="1" parent="1">
          <mxGeometry x="540" y="510" width="50" height="30" as="geometry" />
        </mxCell>
        <mxCell id="T3vx0A5gtFhFNiu5xVaa-6" value="" style="edgeStyle=orthogonalEdgeStyle;rounded=0;orthogonalLoop=1;jettySize=auto;html=1;" edge="1" parent="1" source="T3vx0A5gtFhFNiu5xVaa-5" target="T3vx0A5gtFhFNiu5xVaa-2">
          <mxGeometry relative="1" as="geometry" />
        </mxCell>
        <mxCell id="T3vx0A5gtFhFNiu5xVaa-9" style="edgeStyle=orthogonalEdgeStyle;rounded=0;orthogonalLoop=1;jettySize=auto;html=1;entryX=0;entryY=0.25;entryDx=0;entryDy=0;" edge="1" parent="1" source="T3vx0A5gtFhFNiu5xVaa-5" target="T3vx0A5gtFhFNiu5xVaa-7">
          <mxGeometry relative="1" as="geometry" />
        </mxCell>
        <mxCell id="T3vx0A5gtFhFNiu5xVaa-5" value="&lt;p style=&quot;margin:0px;margin-top:4px;text-align:center;&quot;&gt;&lt;b&gt;Game&lt;/b&gt;&lt;/p&gt;&lt;hr size=&quot;1&quot; style=&quot;border-style:solid;&quot;&gt;&lt;p style=&quot;margin:0px;margin-left:4px;&quot;&gt;+ Board board;&lt;/p&gt;&lt;p style=&quot;margin:0px;margin-left:4px;&quot;&gt;+ Player player&lt;/p&gt;&lt;hr size=&quot;1&quot; style=&quot;border-style:solid;&quot;&gt;&lt;p style=&quot;margin:0px;margin-left:4px;&quot;&gt;// getters and setters&lt;/p&gt;" style="verticalAlign=top;align=left;overflow=fill;html=1;whiteSpace=wrap;" vertex="1" parent="1">
          <mxGeometry x="400" y="320" width="130" height="100" as="geometry" />
        </mxCell>
        <mxCell id="T3vx0A5gtFhFNiu5xVaa-15" style="edgeStyle=orthogonalEdgeStyle;rounded=0;orthogonalLoop=1;jettySize=auto;html=1;entryX=0.5;entryY=0;entryDx=0;entryDy=0;" edge="1" parent="1" source="T3vx0A5gtFhFNiu5xVaa-7" target="T3vx0A5gtFhFNiu5xVaa-1">
          <mxGeometry relative="1" as="geometry" />
        </mxCell>
        <mxCell id="T3vx0A5gtFhFNiu5xVaa-7" value="&lt;p style=&quot;margin:0px;margin-top:4px;text-align:center;&quot;&gt;&lt;b&gt;Player&lt;/b&gt;&lt;/p&gt;&lt;hr size=&quot;1&quot; style=&quot;border-style:solid;&quot;&gt;&lt;p style=&quot;margin:0px;margin-left:4px;&quot;&gt;+ String playerName&lt;/p&gt;&lt;p style=&quot;margin:0px;margin-left:4px;&quot;&gt;+ Piece piece&lt;/p&gt;&lt;hr size=&quot;1&quot; style=&quot;border-style:solid;&quot;&gt;&lt;p style=&quot;margin:0px;margin-left:4px;&quot;&gt;// getters and setters&lt;/p&gt;" style="verticalAlign=top;align=left;overflow=fill;html=1;whiteSpace=wrap;" vertex="1" parent="1">
          <mxGeometry x="615" y="230" width="130" height="90" as="geometry" />
        </mxCell>
        <mxCell id="T3vx0A5gtFhFNiu5xVaa-10" value="PieceType Eum {&lt;div&gt;X,&lt;/div&gt;&lt;div&gt;O&lt;/div&gt;&lt;div&gt;}&lt;/div&gt;" style="text;html=1;align=center;verticalAlign=middle;resizable=0;points=[];autosize=1;strokeColor=none;fillColor=none;" vertex="1" parent="1">
          <mxGeometry x="755" y="478" width="110" height="70" as="geometry" />
        </mxCell>
        <mxCell id="T3vx0A5gtFhFNiu5xVaa-13" style="edgeStyle=orthogonalEdgeStyle;rounded=0;orthogonalLoop=1;jettySize=auto;html=1;entryX=0.25;entryY=1;entryDx=0;entryDy=0;" edge="1" parent="1" source="T3vx0A5gtFhFNiu5xVaa-11" target="T3vx0A5gtFhFNiu5xVaa-1">
          <mxGeometry relative="1" as="geometry" />
        </mxCell>
        <mxCell id="T3vx0A5gtFhFNiu5xVaa-11" value="&lt;p style=&quot;margin:0px;margin-top:4px;text-align:center;&quot;&gt;&lt;b&gt;PieceX&lt;/b&gt;&lt;/p&gt;&lt;hr size=&quot;1&quot; style=&quot;border-style:solid;&quot;&gt;&lt;p style=&quot;margin:0px;margin-left:4px;&quot;&gt;+PieceType pieceX &amp;lt;Enum&amp;gt;&lt;/p&gt;&lt;hr size=&quot;1&quot; style=&quot;border-style:solid;&quot;&gt;&lt;p style=&quot;margin:0px;margin-left:4px;&quot;&gt;// getters and setters&lt;/p&gt;&lt;p style=&quot;margin:0px;margin-left:4px;&quot;&gt;Constructor :&lt;/p&gt;&lt;p style=&quot;margin:0px;margin-left:4px;&quot;&gt;Piece(PieceType piece){&lt;/p&gt;&lt;p style=&quot;margin:0px;margin-left:4px;&quot;&gt;super(PieceType.X)&lt;/p&gt;&lt;p style=&quot;margin:0px;margin-left:4px;&quot;&gt;}&lt;/p&gt;" style="verticalAlign=top;align=left;overflow=fill;html=1;whiteSpace=wrap;" vertex="1" parent="1">
          <mxGeometry x="520" y="630" width="160" height="140" as="geometry" />
        </mxCell>
        <mxCell id="T3vx0A5gtFhFNiu5xVaa-12" value="&lt;p style=&quot;margin:0px;margin-top:4px;text-align:center;&quot;&gt;&lt;b&gt;PieceO&lt;/b&gt;&lt;/p&gt;&lt;hr size=&quot;1&quot; style=&quot;border-style:solid;&quot;&gt;&lt;p style=&quot;margin:0px;margin-left:4px;&quot;&gt;+PieceType pieceO &amp;lt;Enum&amp;gt;&lt;/p&gt;&lt;hr size=&quot;1&quot; style=&quot;border-style:solid;&quot;&gt;&lt;p style=&quot;margin:0px;margin-left:4px;&quot;&gt;// getters and setters&lt;/p&gt;&lt;p style=&quot;margin: 0px 0px 0px 4px;&quot;&gt;Constructor :&lt;/p&gt;&lt;p style=&quot;margin: 0px 0px 0px 4px;&quot;&gt;Piece(PieceType piece){&lt;/p&gt;&lt;p style=&quot;margin: 0px 0px 0px 4px;&quot;&gt;super(PieceType.O)&lt;/p&gt;&lt;p style=&quot;margin: 0px 0px 0px 4px;&quot;&gt;}&lt;/p&gt;" style="verticalAlign=top;align=left;overflow=fill;html=1;whiteSpace=wrap;" vertex="1" parent="1">
          <mxGeometry x="705" y="630" width="175" height="140" as="geometry" />
        </mxCell>
        <mxCell id="T3vx0A5gtFhFNiu5xVaa-14" style="edgeStyle=orthogonalEdgeStyle;rounded=0;orthogonalLoop=1;jettySize=auto;html=1;entryX=0.681;entryY=1;entryDx=0;entryDy=0;entryPerimeter=0;" edge="1" parent="1" source="T3vx0A5gtFhFNiu5xVaa-12" target="T3vx0A5gtFhFNiu5xVaa-1">
          <mxGeometry relative="1" as="geometry" />
        </mxCell>
        <mxCell id="T3vx0A5gtFhFNiu5xVaa-16" value="has" style="text;html=1;align=center;verticalAlign=middle;resizable=0;points=[];autosize=1;strokeColor=none;fillColor=none;" vertex="1" parent="1">
          <mxGeometry x="520" y="278" width="40" height="30" as="geometry" />
        </mxCell>
        <mxCell id="T3vx0A5gtFhFNiu5xVaa-17" value="has" style="text;html=1;align=center;verticalAlign=middle;resizable=0;points=[];autosize=1;strokeColor=none;fillColor=none;" vertex="1" parent="1">
          <mxGeometry x="460" y="448" width="40" height="30" as="geometry" />
        </mxCell>
        <mxCell id="T3vx0A5gtFhFNiu5xVaa-18" value="has" style="text;html=1;align=center;verticalAlign=middle;resizable=0;points=[];autosize=1;strokeColor=none;fillColor=none;" vertex="1" parent="1">
          <mxGeometry x="670" y="368" width="40" height="30" as="geometry" />
        </mxCell>
      </root>
    </mxGraphModel>
  </diagram>
</mxfile>
